<svg width="20" height="20" viewBox="0 0 20 20" fill="none" xmlns="http://www.w3.org/2000/svg">
<path d="M18.6597 9.00081C19.212 9.00082 19.6596 9.44843 19.6596 10.0007C19.6593 10.5527 19.2118 11.0006 18.6597 11.0006L12.4998 11C11.6713 11 10.9996 11.6716 10.9996 12.5V18.6607C10.9993 19.2127 10.5518 19.6606 9.99972 19.6606C9.44763 19.6606 9.0001 19.2127 8.99983 18.6607V12.5C8.99983 11.6716 8.32817 11 7.49969 11L1.33974 11.0006C0.7877 11.0005 0.340132 10.5527 0.339844 10.0007C0.339843 9.44847 0.787522 9.00089 1.33974 9.00081L7.49997 9.00025C8.32834 9.00018 8.99983 8.32863 8.99983 7.50025V1.34071C8.99985 0.788461 9.44747 0.340846 9.99972 0.34082C10.552 0.34082 10.9996 0.788445 10.9996 1.34071V7.50025C10.9996 8.32863 11.6711 9.00018 12.4995 9.00025L18.6597 9.00081Z" fill="black"/>
</svg>
